# xmcd CD database file
#
# Track frame offsets:
#	150
#	9225
#	27405
#	48900
#	69390
#	91230
#	99593
#	116348
#	136538
#
# Disc length: 2096 seconds
#
# Revision: 0
# Processed by: cddbd v1.5.2PL0 Copyright (c) Steve Scherf et al.
# Submitted via: CDex 1.70beta2
#
DISCID=61082e09
DTITLE=Pizuya's Cell x MyonMyon - The Grimoire Of Alice
DYEAR=2008
DGENRE=東方アレンジ
TTITLE0=Crazy Clock Cracker
TTITLE1=Romantic Children
TTITLE2=WEII -World's End Est-
TTITLE3=Myth Logic Inginite
TTITLE4=Breeds PuPPet
TTITLE5=Mind is Love Holic Pt.1
TTITLE6=Mind is Love Holic Pt.2
TTITLE7=The Grimoire Of Alice
TTITLE8=Meteralice
EXTD=YEAR: 2008
EXTT0=
EXTT1=
EXTT2=
EXTT3=
EXTT4=
EXTT5=
EXTT6=
EXTT7=
EXTT8=
PLAYORDER=
